<?xml version="1.0" encoding="UTF-8" standalone="no"?>
<!-- Generator: Adobe Illustrator 19.1.0, SVG Export Plug-In . SVG Version: 6.00 Build 0)  -->

<svg
   xmlns:dc="http://purl.org/dc/elements/1.1/"
   xmlns:cc="http://creativecommons.org/ns#"
   xmlns:rdf="http://www.w3.org/1999/02/22-rdf-syntax-ns#"
   xmlns:svg="http://www.w3.org/2000/svg"
   xmlns="http://www.w3.org/2000/svg"
   xmlns:sodipodi="http://sodipodi.sourceforge.net/DTD/sodipodi-0.dtd"
   xmlns:inkscape="http://www.inkscape.org/namespaces/inkscape"
   version="1.1"
   x="0px"
   y="0px"
   width="24px"
   height="24px"
   viewBox="0 0 24 24"
   enable-background="new 0 0 24 24"
   xml:space="preserve"
   id="svg1458"
   sodipodi:docname="outline-lock-24px (1).svg"
   inkscape:version="0.92.3 (2405546, 2018-03-11)"><metadata
   id="metadata1464"><rdf:RDF><cc:Work
       rdf:about=""><dc:format>image/svg+xml</dc:format><dc:type
         rdf:resource="http://purl.org/dc/dcmitype/StillImage" /></cc:Work></rdf:RDF></metadata><defs
   id="defs1462" /><sodipodi:namedview
   pagecolor="#ffffff"
   bordercolor="#666666"
   borderopacity="1"
   objecttolerance="10"
   gridtolerance="10"
   guidetolerance="10"
   inkscape:pageopacity="0"
   inkscape:pageshadow="2"
   inkscape:window-width="1920"
   inkscape:window-height="1055"
   id="namedview1460"
   showgrid="false"
   inkscape:zoom="33.958333"
   inkscape:cx="12"
   inkscape:cy="12"
   inkscape:window-x="1912"
   inkscape:window-y="-8"
   inkscape:window-maximized="1"
   inkscape:current-layer="svg1458" />
<g
   id="Bounding_Boxes">
	<g
   id="ui_x5F_spec_x5F_header_copy_3"
   display="none">
	</g>
	<path
   fill="none"
   d="M0,0h24v24H0V0z"
   id="path1429" />
	<path
   opacity="0.87"
   fill="none"
   d="M0,0h24v24H0V0z"
   id="path1431" />
</g>
<g
   id="Rounded"
   display="none">
	<g
   id="ui_x5F_spec_x5F_header_copy_5">
	</g>
	<path
   display="inline"
   d="M18,8h-1V6c0-2.76-2.24-5-5-5S7,3.24,7,6v2H6c-1.1,0-2,0.9-2,2v10c0,1.1,0.9,2,2,2h12c1.1,0,2-0.9,2-2V10   C20,8.9,19.1,8,18,8z M12,17c-1.1,0-2-0.9-2-2c0-1.1,0.9-2,2-2c1.1,0,2,0.9,2,2C14,16.1,13.1,17,12,17z M9,8V6c0-1.66,1.34-3,3-3   s3,1.34,3,3v2H9z"
   id="path1435" />
</g>
<g
   id="Sharp"
   display="none">
	<g
   id="ui_x5F_spec_x5F_header_copy_4">
	</g>
	<path
   display="inline"
   d="M20,8h-3l0-1.79c0-2.61-1.91-4.94-4.51-5.19C9.51,0.74,7,3.08,7,6v2H4v14h16V8z M12,17c-1.1,0-2-0.9-2-2   c0-1.1,0.9-2,2-2c1.1,0,2,0.9,2,2C14,16.1,13.1,17,12,17z M9,8V6c0-1.66,1.34-3,3-3s3,1.34,3,3v2H9z"
   id="path1439" />
</g>
<g
   id="Outline"
   style="fill:#000b4c;fill-opacity:1">
	<g
   id="ui_x5F_spec_x5F_header"
   display="none"
   style="fill:#000b4c;fill-opacity:1">
	</g>
	<path
   d="M18,8h-1V6c0-2.76-2.24-5-5-5S7,3.24,7,6v2H6c-1.1,0-2,0.9-2,2v10c0,1.1,0.9,2,2,2h12c1.1,0,2-0.9,2-2V10   C20,8.9,19.1,8,18,8z M9,6c0-1.66,1.34-3,3-3s3,1.34,3,3v2H9V6z M18,20H6V10h12V20z M12,17c1.1,0,2-0.9,2-2c0-1.1-0.9-2-2-2   c-1.1,0-2,0.9-2,2C10,16.1,10.9,17,12,17z"
   id="path1443"
   style="fill:#000b4c;fill-opacity:1" />
</g>
<g
   id="Duotone"
   display="none">
	<g
   id="ui_x5F_spec_x5F_header_copy_2">
	</g>
	<g
   display="inline"
   id="g1451">
		<path
   opacity="0.3"
   d="M6,20h12V10H6V20z M12,13c1.1,0,2,0.9,2,2c0,1.1-0.9,2-2,2c-1.1,0-2-0.9-2-2C10,13.9,10.9,13,12,13z"
   id="path1447" />
		<path
   d="M18,8h-1V6c0-2.76-2.24-5-5-5S7,3.24,7,6v2H6c-1.1,0-2,0.9-2,2v10c0,1.1,0.9,2,2,2h12c1.1,0,2-0.9,2-2V10    C20,8.9,19.1,8,18,8z M9,6c0-1.66,1.34-3,3-3s3,1.34,3,3v2H9V6z M18,20H6V10h12V20z M12,17c1.1,0,2-0.9,2-2c0-1.1-0.9-2-2-2    c-1.1,0-2,0.9-2,2C10,16.1,10.9,17,12,17z"
   id="path1449" />
	</g>
</g>
<g
   id="Material"
   display="none">
	<g
   id="ui_x5F_spec_x5F_header_copy">
	</g>
	<path
   display="inline"
   d="M18,8h-1V6c0-2.76-2.24-5-5-5S7,3.24,7,6v2H6c-1.1,0-2,0.9-2,2v10c0,1.1,0.9,2,2,2h12c1.1,0,2-0.9,2-2V10   C20,8.9,19.1,8,18,8z M12,17c-1.1,0-2-0.9-2-2c0-1.1,0.9-2,2-2c1.1,0,2,0.9,2,2C14,16.1,13.1,17,12,17z M9,8V6c0-1.66,1.34-3,3-3   s3,1.34,3,3v2H9z"
   id="path1455" />
</g>
</svg>